HIERARCHY
ROOT Hips
{
	OFFSET 0.00 0.00 0.00
	CHANNELS 6 Xposition Yposition Zposition Xrotation Yrotation Zrotation
	JOINT Spine
	{
		OFFSET 0.00000 4.88528 0.00000
		CHANNELS 3 Xrotation Yrotation Zrotation
		JOINT Head
		{
			OFFSET 0.00000 16.49416 0.00000
			CHANNELS 3 Xrotation Yrotation Zrotation
			End Site
			{
				OFFSET 0.00000 4.52755 0.00000
			}
		}
		JOINT LeftShoulder
		{
			OFFSET 0.00000 10.66345 0.00000
			CHANNELS 3 Xrotation Yrotation Zrotation
			JOINT LeftArm
			{
				OFFSET 7.53191 0.00000 0.00000
				CHANNELS 3 Xrotation Yrotation Zrotation
				JOINT LeftForeArm
				{
					OFFSET 10.22920 0.00000 0.00000
					CHANNELS 3 Yrotation Zrotation Xrotation
					JOINT LeftHand
					{
						OFFSET 8.67349 0.00000 0.00000
						CHANNELS 3 Xrotation Yrotation Zrotation
						JOINT LeftHandThumb1
						{
							OFFSET 0.00000 0.00000 0.00000
							CHANNELS 3 Xrotation Zrotation Yrotation
							End Site
							{
								OFFSET 0.00000 0.00000 3.93700
							}
						}
						End Site
						{
							OFFSET 3.93700 0.00000 0.00000
						}
					}
				}
			}
		}
		JOINT RightShoulder
		{
			OFFSET 0.00000 10.66345 0.00000
			CHANNELS 3 Xrotation Yrotation Zrotation
			JOINT RightArm
			{
				OFFSET -7.53191 0.00000 0.00000
				CHANNELS 3 Xrotation Yrotation Zrotation
				JOINT RightForeArm
				{
					OFFSET -10.22920 0.00000 0.00000
					CHANNELS 3 Yrotation Zrotation Xrotation
					JOINT RightHand
					{
						OFFSET -8.67349 0.00000 0.00000
						CHANNELS 3 Xrotation Yrotation Zrotation
						JOINT RightHandThumb1
						{
							OFFSET 0.00000 0.00000 0.00000
							CHANNELS 3 Xrotation Zrotation Yrotation
							End Site
							{
								OFFSET 0.00000 0.00000 3.93700
							}
						}
						End Site
						{
							OFFSET -3.93700 0.00000 0.00000
						}
					}
				}
			}
		}
	}
	JOINT LeftUpLeg
	{
		OFFSET 2.67219 0.00000 0.00000
		CHANNELS 3 Xrotation Yrotation Zrotation
		JOINT LeftLeg
		{
			OFFSET 0.00000 -16.26339 0.00000
			CHANNELS 3 Xrotation Yrotation Zrotation
			JOINT LeftFoot
			{
				OFFSET 0.00000 -14.32816 0.00000
				CHANNELS 3 Xrotation Yrotation Zrotation
				JOINT LeftToeBase
				{
					OFFSET 0.00000 -1.30219 4.85985
					CHANNELS 3 Xrotation Yrotation Zrotation
					End Site
					{
						OFFSET 0.00000 0.00000 2.95275
					}
				}
			}
		}
	}
	JOINT RightUpLeg
	{
		OFFSET -2.67219 0.00000 0.00000
		CHANNELS 3 Xrotation Yrotation Zrotation
		JOINT RightLeg
		{
			OFFSET 0.00000 -16.26339 0.00000
			CHANNELS 3 Xrotation Yrotation Zrotation
			JOINT RightFoot
			{
				OFFSET 0.00000 -14.32816 0.00000
				CHANNELS 3 Xrotation Yrotation Zrotation
				JOINT RightToeBase
				{
					OFFSET 0.00000 -1.30219 4.85985
					CHANNELS 3 Xrotation Yrotation Zrotation
					End Site
					{
						OFFSET 0.00000 0.00000 2.95275
					}
				}
			}
		}
	}
}
MOTION
Frames: 17
Frame Time: 0.008333
 0.9555 32.7336 -2.9510 6.6231 2.1346 -0.1572 -12.2244 -6.4263 -2.1578 19.3000 0.2808 -1.5777 31.0318 31.6075 19.4106 -70.4651 -4.8910 -28.7057 2.2326 0.0000 8.4455 0.1298 -3.4067 2.1824 33.1476 -0.0000 26.2537 -8.9725 -3.8013 -31.3979 -19.0484 0.0950 38.4998 -0.5807 -0.0000 9.3642 -0.0340 2.0996 0.9267 32.8623 0.0000 -24.3270 -1.2509 -3.6082 0.7686 -3.0186 -0.0000 0.0000 -2.8206 14.2523 -9.8711 -7.5859 0.0000 0.0000 0.2137 -1.8174 0.2241 -3.7290 -0.0000 -0.0000 -6.6101 -9.1980 1.5062 -0.1272 0.0000 -0.0000
 0.9548 32.7337 -2.9445 6.6264 2.1405 -0.1562 -12.2355 -6.4414 -2.1612 19.2952 0.2764 -1.5768 30.9945 31.5949 19.4249 -70.4151 -4.9071 -28.6793 2.2271 0.0000 8.4684 0.1283 -3.3676 2.1829 33.1476 -0.0000 26.2537 -8.9764 -3.7970 -31.3890 -19.0394 0.0956 38.4617 -0.5847 -0.0000 9.3936 -0.0342 2.1051 0.9301 32.8623 0.0000 -24.3270 -1.2439 -3.5845 0.7683 -3.0207 0.0000 0.0000 -2.8152 14.2198 -9.8714 -7.6329 0.0000 -0.0000 0.2150 -1.8355 0.2254 -3.7130 0.0000 0.0000 -6.6245 -9.1805 1.4887 -0.1722 -0.0000 -0.0000
 0.9544 32.7335 -2.9384 6.6390 2.1429 -0.1543 -12.2542 -6.4518 -2.1650 19.2916 0.2711 -1.5774 31.0087 31.6055 19.4087 -70.4652 -4.9165 -28.6602 2.2436 0.0000 8.4986 0.1243 -3.3384 2.1333 33.1476 -0.0000 26.2537 -8.9640 -3.8052 -31.3891 -19.0211 0.1092 38.4369 -0.5801 -0.0000 9.3621 -0.0341 2.1311 0.9162 32.8623 0.0000 -24.3270 -1.2419 -3.5841 0.7667 -3.0282 -0.0000 0.0000 -2.8132 14.2237 -9.8591 -7.6336 0.0000 -0.0000 0.2222 -1.8361 0.2251 -3.7321 -0.0000 -0.0000 -6.6168 -9.1934 1.5137 -0.1620 0.0000 0.0000
 0.9534 32.7336 -2.9322 6.6491 2.1371 -0.1509 -12.2735 -6.4565 -2.1670 19.2963 0.2628 -1.5791 31.0441 31.6197 19.3839 -70.5290 -4.9120 -28.6478 2.2451 0.0000 8.5015 0.1252 -3.3462 2.1437 33.1476 -0.0000 26.2537 -8.9586 -3.8061 -31.3910 -19.0214 0.0997 38.4151 -0.5642 -0.0000 9.3622 -0.0339 2.1553 0.9019 32.8623 0.0000 -24.3270 -1.2352 -3.5715 0.7665 -3.0404 0.0000 -0.0000 -2.8053 14.2222 -9.8903 -7.6540 -0.0000 0.0000 0.2242 -1.8405 0.2297 -3.7335 -0.0000 0.0000 -6.6294 -9.1992 1.4636 -0.1854 0.0000 -0.0000
 0.9526 32.7337 -2.9265 6.6640 2.1374 -0.1535 -12.2997 -6.4650 -2.1653 19.3149 0.2709 -1.5852 31.0227 31.6056 19.4025 -70.4524 -4.9350 -28.6307 2.2478 0.0000 8.4306 0.1193 -3.2625 2.0946 33.1476 -0.0000 26.2537 -8.9490 -3.8138 -31.3867 -19.0345 0.0958 38.3897 -0.5533 -0.0000 9.3641 -0.0304 2.0753 0.8390 32.8623 0.0000 -24.3270 -1.2355 -3.5769 0.7711 -3.0484 0.0000 -0.0000 -2.8055 14.2351 -9.8993 -7.6066 -0.0000 -0.0000 0.2186 -1.8235 0.2275 -3.7342 0.0000 0.0000 -6.6193 -9.2007 1.4962 -0.2281 -0.0000 0.0000
 0.9521 32.7334 -2.9200 6.6712 2.1368 -0.1543 -12.3128 -6.4667 -2.1636 19.3197 0.2649 -1.5909 30.9926 31.6032 19.4172 -70.4780 -4.9144 -28.6339 2.2326 0.0000 8.4668 0.1172 -3.2681 2.0558 33.1476 -0.0000 26.2537 -8.9560 -3.8288 -31.3959 -19.0433 0.0987 38.3850 -0.5573 -0.0000 9.3295 -0.0297 2.0911 0.8134 32.8623 0.0000 -24.3270 -1.2259 -3.5821 0.7738 -3.0568 -0.0000 0.0000 -2.8091 14.2258 -9.9032 -7.6325 -0.0000 0.0000 0.2290 -1.8223 0.2290 -3.7436 -0.0000 0.0000 -6.6180 -9.2008 1.5218 -0.2264 -0.0000 0.0000
 0.9503 32.7332 -2.9144 6.6860 2.1293 -0.1544 -12.3399 -6.4696 -2.1613 19.3438 0.2691 -1.5971 31.0073 31.6098 19.4087 -70.5528 -4.8883 -28.6242 2.2429 0.0000 8.4228 0.1175 -3.2693 2.0599 33.1476 -0.0000 26.2537 -8.9601 -3.8298 -31.4056 -19.0582 0.0896 38.3830 -0.5533 -0.0000 9.3394 -0.0301 2.0962 0.8234 32.8623 0.0000 -24.3270 -1.2333 -3.5541 0.7760 -3.0487 0.0000 -0.0000 -2.8233 14.2070 -9.8876 -7.6241 -0.0000 0.0000 0.2227 -1.8236 0.2318 -3.7410 0.0000 0.0000 -6.6277 -9.1948 1.5239 -0.2246 -0.0000 -0.0000
 0.9495 32.7325 -2.9086 6.6946 2.1392 -0.1517 -12.3563 -6.4857 -2.1691 19.3617 0.2744 -1.5916 31.0089 31.6298 19.4128 -70.5749 -4.8909 -28.6419 2.2409 0.0000 8.4463 0.1204 -3.2464 2.1255 33.1476 -0.0000 26.2537 -9.0255 -3.7835 -31.4093 -18.9786 0.0740 38.3656 -0.5450 -0.0000 9.3084 -0.0306 2.1078 0.8326 32.8623 0.0000 -24.3270 -1.2278 -3.5741 0.7742 -3.0596 -0.0000 -0.0000 -2.8192 14.2271 -9.8802 -7.6970 -0.0000 0.0000 0.2333 -1.8466 0.2383 -3.7569 -0.0000 -0.0000 -6.6357 -9.1995 1.4652 -0.1881 -0.0000 0.0000
 0.9483 32.7320 -2.9035 6.7025 2.1424 -0.1487 -12.3735 -6.5086 -2.1720 19.3891 0.2852 -1.6013 31.0142 31.6365 19.4061 -70.5744 -4.8960 -28.6327 2.2394 0.0000 8.4240 0.1208 -3.2527 2.1286 33.1476 -0.0000 26.2537 -9.0349 -3.7631 -31.4074 -18.9823 0.0654 38.3533 -0.5423 -0.0000 9.3215 -0.0302 2.1097 0.8200 32.8623 0.0000 -24.3270 -1.2267 -3.5850 0.7719 -3.0556 -0.0000 -0.0000 -2.8301 14.2341 -9.8687 -7.6432 0.0000 0.0000 0.2338 -1.8544 0.2380 -3.7541 -0.0000 0.0000 -6.6525 -9.1913 1.4449 -0.2024 -0.0000 0.0000
 0.9468 32.7314 -2.8982 6.7130 2.1400 -0.1506 -12.3922 -6.5058 -2.1685 19.4143 0.2851 -1.6042 31.0286 31.6391 19.3998 -70.6035 -4.9090 -28.6367 2.2524 0.0000 8.4400 0.1308 -3.3408 2.2426 33.1476 -0.0000 26.2537 -9.0534 -3.7715 -31.4192 -18.9848 0.0705 38.3581 -0.5554 -0.0000 9.3063 -0.0299 2.1252 0.8072 32.8623 0.0000 -24.3270 -1.2240 -3.5844 0.7781 -3.0616 -0.0000 -0.0000 -2.8428 14.2353 -9.8594 -7.6413 0.0000 0.0000 0.2373 -1.8205 0.2354 -3.7626 -0.0000 -0.0000 -6.6457 -9.2164 1.5127 -0.2405 0.0000 -0.0000
 0.9451 32.7313 -2.8932 6.7232 2.1404 -0.1544 -12.4120 -6.5191 -2.1623 19.4548 0.2953 -1.6198 31.0401 31.6420 19.3844 -70.6334 -4.9194 -28.6342 2.2639 0.0000 8.4525 0.1304 -3.3159 2.2535 33.1476 -0.0000 26.2537 -9.0342 -3.7821 -31.4282 -19.0312 0.0622 38.3672 -0.5512 -0.0000 9.3364 -0.0291 2.1226 0.7856 32.8623 0.0000 -24.3270 -1.2231 -3.6062 0.7845 -3.0664 0.0000 0.0000 -2.8387 14.2524 -9.8664 -7.6652 0.0000 0.0000 0.2381 -1.8323 0.2417 -3.7650 0.0000 0.0000 -6.6458 -9.2071 1.5260 -0.2264 -0.0000 -0.0000
 0.9434 32.7308 -2.8882 6.7259 2.1365 -0.1481 -12.4223 -6.5260 -2.1720 19.4885 0.3112 -1.6242 31.0330 31.6322 19.4019 -70.6203 -4.9023 -28.6213 2.2520 0.0000 8.4431 0.1228 -3.2747 2.1494 33.1476 -0.0000 26.2537 -9.0367 -3.7668 -31.4211 -19.0352 0.0449 38.3577 -0.5454 -0.0000 9.3587 -0.0300 2.1410 0.8039 32.8623 0.0000 -24.3270 -1.2149 -3.6019 0.7819 -3.0692 0.0000 -0.0000 -2.8379 14.2495 -9.8546 -7.7203 -0.0000 0.0000 0.2472 -1.8520 0.2450 -3.7730 -0.0000 0.0000 -6.6652 -9.1959 1.4855 -0.2039 -0.0000 -0.0000
 0.9423 32.7302 -2.8827 6.7290 2.1371 -0.1441 -12.4358 -6.5335 -2.1730 19.5282 0.3187 -1.6361 31.0344 31.6171 19.4030 -70.6264 -4.8974 -28.6086 2.2582 0.0000 8.4507 0.1243 -3.3605 2.1189 33.1476 -0.0000 26.2537 -9.0266 -3.7727 -31.4284 -19.0520 0.0607 38.3655 -0.5583 -0.0000 9.3843 -0.0296 2.1466 0.7896 32.8623 0.0000 -24.3270 -1.2126 -3.5989 0.7796 -3.0612 0.0000 -0.0000 -2.8511 14.2503 -9.8453 -7.7106 -0.0000 0.0000 0.2569 -1.8627 0.2452 -3.7799 0.0000 -0.0000 -6.6703 -9.1850 1.4545 -0.2150 -0.0000 0.0000
 0.9401 32.7298 -2.8779 6.7308 2.1243 -0.1443 -12.4449 -6.5320 -2.1699 19.5699 0.3307 -1.6410 31.0821 31.6354 19.3835 -70.6287 -4.9249 -28.6210 2.2458 0.0000 8.4770 0.1366 -3.3706 2.3227 33.1476 -0.0000 26.2537 -9.0119 -3.7658 -31.4295 -19.0536 0.0597 38.3679 -0.5462 -0.0000 9.4010 -0.0281 2.1236 0.7593 32.8623 0.0000 -24.3270 -1.1965 -3.6135 0.7860 -3.0765 -0.0000 0.0000 -2.8583 14.2761 -9.8302 -7.6931 0.0000 -0.0000 0.2653 -1.8630 0.2508 -3.7854 0.0000 -0.0000 -6.6659 -9.1809 1.4666 -0.2066 -0.0000 0.0000
 0.9377 32.7295 -2.8730 6.7383 2.1115 -0.1453 -12.4575 -6.5299 -2.1686 19.5952 0.3154 -1.6246 31.0698 31.6318 19.3985 -70.5935 -4.9304 -28.6241 2.2333 0.0000 8.4550 0.1309 -3.3843 2.2164 33.1476 -0.0000 26.2537 -9.0096 -3.7595 -31.4281 -19.0548 0.0612 38.3712 -0.5480 -0.0000 9.4243 -0.0314 2.2008 0.8175 32.8623 0.0000 -24.3270 -1.1955 -3.6050 0.7914 -3.0701 -0.0000 0.0000 -2.8337 14.2816 -9.9505 -7.8221 0.0000 -0.0000 0.2669 -1.8425 0.2549 -3.7871 0.0000 0.0000 -6.6714 -9.1859 1.4724 -0.2383 -0.0000 -0.0000
 0.9362 32.7291 -2.8686 6.7411 2.1070 -0.1432 -12.4661 -6.5214 -2.1692 19.6331 0.3207 -1.6330 31.0962 31.6292 19.4021 -70.5766 -4.9420 -28.6331 2.2138 0.0000 8.4056 0.1293 -3.3694 2.1982 33.1476 -0.0000 26.2537 -9.0050 -3.7507 -31.4253 -19.0323 0.0630 38.3648 -0.5446 -0.0000 9.4368 -0.0308 2.2012 0.8028 32.8623 0.0000 -24.3270 -1.1872 -3.6200 0.7930 -3.0799 0.0000 -0.0000 -2.8628 14.2959 -9.8526 -7.6992 0.0000 -0.0000 0.2741 -1.8577 0.2569 -3.7948 -0.0000 -0.0000 -6.6692 -9.1666 1.4776 -0.2058 0.0000 -0.0000
 0.9345 32.7288 -2.8643 6.7433 2.1025 -0.1354 -12.4713 -6.5180 -2.1799 19.6630 0.3489 -1.6283 31.1287 31.6435 19.3884 -70.5964 -4.9695 -28.6478 2.2095 0.0000 8.4013 0.1264 -3.3032 2.1925 33.1476 -0.0000 26.2537 -8.9990 -3.7483 -31.4181 -19.0313 0.0713 38.3651 -0.5530 -0.0000 9.4439 -0.0295 2.1896 0.7728 32.8623 0.0000 -24.3270 -1.1857 -3.6187 0.7876 -3.0709 -0.0000 0.0000 -2.8838 14.3028 -9.8507 -7.6787 0.0000 0.0000 0.2790 -1.8765 0.2548 -3.7945 0.0000 -0.0000 -6.6824 -9.1565 1.4792 -0.2096 0.0000 0.0000
